<svg xmlns="http://www.w3.org/2000/svg" width="800" height="490" viewBox="0 0 800 490"><title>Rectángulos que se ajustan a un borde curvo</title><rect width="800" height="490" fill="white"/><g font-family="Arial, sans-serif"><text x="32" y="42" font-size="25" fill="#243746" text-anchor="start">Rectángulos que se ajustan a un borde curvo</text><rect x="75" y="341.6847826086956" width="67.5" height="13.315217391304373" fill="#b95418" fill-opacity=".2" stroke="#b95418"/><rect x="75" y="355" width="67.5" height="0" fill="#176b91" fill-opacity=".2" stroke="#176b91"/><rect x="142.5" y="301.7391304347826" width="67.5" height="53.26086956521738" fill="#b95418" fill-opacity=".2" stroke="#b95418"/><rect x="142.5" y="341.6847826086956" width="67.5" height="13.315217391304373" fill="#176b91" fill-opacity=".2" stroke="#176b91"/><rect x="210" y="235.16304347826087" width="67.5" height="119.83695652173913" fill="#b95418" fill-opacity=".2" stroke="#b95418"/><rect x="210" y="301.7391304347826" width="67.5" height="53.26086956521738" fill="#176b91" fill-opacity=".2" stroke="#176b91"/><rect x="277.5" y="141.9565217391304" width="67.5" height="213.0434782608696" fill="#b95418" fill-opacity=".2" stroke="#b95418"/><rect x="277.5" y="235.16304347826087" width="67.5" height="119.83695652173913" fill="#176b91" fill-opacity=".2" stroke="#176b91"/><line x1="75" y1="355" x2="355" y2="355" stroke="#243746" stroke-width="2" /><line x1="75" y1="355" x2="75" y2="102" stroke="#243746" stroke-width="2" /><text x="360" y="360" font-size="17" fill="#243746" text-anchor="start">x</text><text x="61" y="100" font-size="17" fill="#243746" text-anchor="start">y</text><polyline points="75,355 76.8,354.9905314009662 78.6,354.9621256038647 80.4,354.91478260869565 82.2,354.84850241545894 84,354.7632850241546 85.8,354.6591304347826 87.6,354.536038647343 89.4,354.39400966183575 91.2,354.23304347826087 93,354.05314009661834 94.8,353.8542995169082 96.6,353.63652173913044 98.4,353.399806763285 100.2,353.14415458937196 102,352.8695652173913 103.8,352.576038647343 105.6,352.26357487922706 107.4,351.93217391304347 109.2,351.5818357487923 111,351.21256038647346 112.80000000000001,350.824347826087 114.6,350.41719806763285 116.4,349.99111111111114 118.2,349.5460869565217 120,349.0821256038647 121.80000000000001,348.5992270531401 123.6,348.0973913043478 125.4,347.5766183574879 127.19999999999999,347.0369082125604 129,346.4782608695652 130.8,345.9006763285024 132.6,345.304154589372 134.4,344.6886956521739 136.2,344.0542995169082 138,343.4009661835749 139.8,342.72869565217394 141.60000000000002,342.03748792270534 143.4,341.3273429951691 145.2,340.5982608695652 147,339.8502415458937 148.8,339.0832850241546 150.60000000000002,338.2973913043478 152.4,337.49256038647343 154.2,336.6687922705314 156,335.82608695652175 157.8,334.96444444444444 159.60000000000002,334.08386473429954 161.4,333.18434782608693 163.2,332.26589371980674 165,331.32850241545896 166.8,330.37217391304347 168.60000000000002,329.3969082125604 170.4,328.40270531400967 172.2,327.3895652173913 174,326.35748792270533 175.8,325.30647342995167 177.6,324.2365217391304 179.39999999999998,323.14763285024156 181.2,322.039806763285 183,320.9130434782609 184.8,319.7673429951691 186.6,318.60270531400965 188.39999999999998,317.41913043478263 190.2,316.2166183574879 192,314.9951690821256 193.8,313.7547826086957 195.6,312.49545893719807 197.39999999999998,311.21719806763286 199.2,309.92 201,308.6038647342995 202.8,307.2687922705314 204.6,305.91478260869565 206.4,304.54183574879227 208.20000000000002,303.14995169082124 210,301.7391304347826 211.8,300.3093719806763 213.6,298.8606763285024 215.4,297.3930434782609 217.2,295.9064734299517 219,294.4009661835749 220.8,292.87652173913045 222.6,291.33314009661837 224.4,289.77082125603863 226.20000000000002,288.1895652173913 228,286.58937198067633 229.8,284.9702415458937 231.6,283.33217391304345 233.4,281.6751690821256 235.20000000000002,279.9992270531401 237,278.30434782608694 238.8,276.59053140096614 240.6,274.85777777777776 242.4,273.1060869565217 244.20000000000002,271.33545893719804 246,269.54589371980677 247.8,267.73739130434785 249.6,265.9099516908213 251.4,264.0635748792271 253.20000000000002,262.1982608695652 255,260.31400966183577 256.8,258.4108212560386 258.6,256.4886956521739 260.4,254.54763285024154 262.20000000000005,252.58763285024153 264,250.60869565217394 265.8,248.61082125603866 267.6,246.59400966183574 269.4,244.55826086956523 271.20000000000005,242.50357487922707 273,240.42995169082127 274.8,238.33739130434782 276.6,236.22589371980672 278.4,234.0954589371981 280.2,231.94608695652173 282,229.77777777777777 283.79999999999995,227.5905314009662 285.6,225.38434782608695 287.4,223.15922705314009 289.2,220.91516908212557 291,218.65217391304344 292.79999999999995,216.37024154589372 294.6,214.0693719806763 296.4,211.74956521739134 298.2,209.41082125603864 300,207.05314009661834 301.79999999999995,204.67652173913044 303.6,202.28096618357486 305.4,199.86647342995164 307.2,197.43304347826088 309,194.9806763285024 310.79999999999995,192.50937198067635 312.6,190.0191304347826 314.4,187.50995169082123 316.2,184.98183574879226 318,182.43478260869563 319.79999999999995,179.8687922705314 321.6,177.2838647342995 323.4,174.67999999999998 325.2,172.05719806763284 327,169.41545893719805 328.79999999999995,166.75478260869565 330.6,164.0751690821256 332.40000000000003,161.3766183574879 334.2,158.6591304347826 336,155.92270531400965 337.8,153.16734299516904 339.6,150.39304347826086 341.40000000000003,147.599806763285 343.2,144.78763285024155 345,141.9565217391304" fill="none" stroke="#243746" stroke-width="3"/><text x="75" y="83" font-size="21" fill="#243746" text-anchor="start">4 piezas uniformes</text><text x="210" y="413" font-size="22" fill="#243746" text-anchor="middle">U − L = 1/4</text><rect x="455" y="351.67119565217394" width="33.75" height="3.3288043478260647" fill="#b95418" fill-opacity=".2" stroke="#b95418"/><rect x="455" y="355" width="33.75" height="0" fill="#176b91" fill-opacity=".2" stroke="#176b91"/><rect x="488.75" y="341.6847826086956" width="33.75" height="13.315217391304373" fill="#b95418" fill-opacity=".2" stroke="#b95418"/><rect x="488.75" y="351.67119565217394" width="33.75" height="3.3288043478260647" fill="#176b91" fill-opacity=".2" stroke="#176b91"/><rect x="522.5" y="325.0407608695652" width="33.75" height="29.95923913043481" fill="#b95418" fill-opacity=".2" stroke="#b95418"/><rect x="522.5" y="341.6847826086956" width="33.75" height="13.315217391304373" fill="#176b91" fill-opacity=".2" stroke="#176b91"/><rect x="556.25" y="301.7391304347826" width="33.75" height="53.26086956521738" fill="#b95418" fill-opacity=".2" stroke="#b95418"/><rect x="556.25" y="325.0407608695652" width="33.75" height="29.95923913043481" fill="#176b91" fill-opacity=".2" stroke="#176b91"/><rect x="590" y="271.7798913043478" width="33.75" height="83.22010869565219" fill="#b95418" fill-opacity=".2" stroke="#b95418"/><rect x="590" y="301.7391304347826" width="33.75" height="53.26086956521738" fill="#176b91" fill-opacity=".2" stroke="#176b91"/><rect x="623.75" y="235.16304347826087" width="33.75" height="119.83695652173913" fill="#b95418" fill-opacity=".2" stroke="#b95418"/><rect x="623.75" y="271.7798913043478" width="33.75" height="83.22010869565219" fill="#176b91" fill-opacity=".2" stroke="#176b91"/><rect x="657.5" y="191.88858695652175" width="33.75" height="163.11141304347825" fill="#b95418" fill-opacity=".2" stroke="#b95418"/><rect x="657.5" y="235.16304347826087" width="33.75" height="119.83695652173913" fill="#176b91" fill-opacity=".2" stroke="#176b91"/><rect x="691.25" y="141.9565217391304" width="33.75" height="213.0434782608696" fill="#b95418" fill-opacity=".2" stroke="#b95418"/><rect x="691.25" y="191.88858695652175" width="33.75" height="163.11141304347825" fill="#176b91" fill-opacity=".2" stroke="#176b91"/><line x1="455" y1="355" x2="735" y2="355" stroke="#243746" stroke-width="2" /><line x1="455" y1="355" x2="455" y2="102" stroke="#243746" stroke-width="2" /><text x="740" y="360" font-size="17" fill="#243746" text-anchor="start">x</text><text x="441" y="100" font-size="17" fill="#243746" text-anchor="start">y</text><polyline points="455,355 456.8,354.9905314009662 458.6,354.9621256038647 460.4,354.91478260869565 462.2,354.84850241545894 464,354.7632850241546 465.8,354.6591304347826 467.6,354.536038647343 469.4,354.39400966183575 471.2,354.23304347826087 473,354.05314009661834 474.8,353.8542995169082 476.6,353.63652173913044 478.4,353.399806763285 480.2,353.14415458937196 482,352.8695652173913 483.8,352.576038647343 485.6,352.26357487922706 487.4,351.93217391304347 489.2,351.5818357487923 491,351.21256038647346 492.8,350.824347826087 494.6,350.41719806763285 496.4,349.99111111111114 498.2,349.5460869565217 500,349.0821256038647 501.8,348.5992270531401 503.6,348.0973913043478 505.4,347.5766183574879 507.2,347.0369082125604 509,346.4782608695652 510.8,345.9006763285024 512.6,345.304154589372 514.4,344.6886956521739 516.2,344.0542995169082 518,343.4009661835749 519.8,342.72869565217394 521.6,342.03748792270534 523.4,341.3273429951691 525.2,340.5982608695652 527,339.8502415458937 528.8,339.0832850241546 530.6,338.2973913043478 532.4,337.49256038647343 534.2,336.6687922705314 536,335.82608695652175 537.8,334.96444444444444 539.6,334.08386473429954 541.4,333.18434782608693 543.2,332.26589371980674 545,331.32850241545896 546.8,330.37217391304347 548.6,329.3969082125604 550.4,328.40270531400967 552.2,327.3895652173913 554,326.35748792270533 555.8,325.30647342995167 557.6,324.2365217391304 559.4,323.14763285024156 561.2,322.039806763285 563,320.9130434782609 564.8,319.7673429951691 566.6,318.60270531400965 568.4,317.41913043478263 570.2,316.2166183574879 572,314.9951690821256 573.8,313.7547826086957 575.6,312.49545893719807 577.4,311.21719806763286 579.2,309.92 581,308.6038647342995 582.8,307.2687922705314 584.6,305.91478260869565 586.4,304.54183574879227 588.2,303.14995169082124 590,301.7391304347826 591.8,300.3093719806763 593.6,298.8606763285024 595.4,297.3930434782609 597.2,295.9064734299517 599,294.4009661835749 600.8,292.87652173913045 602.6,291.33314009661837 604.4,289.77082125603863 606.2,288.1895652173913 608,286.58937198067633 609.8,284.9702415458937 611.6,283.33217391304345 613.4,281.6751690821256 615.2,279.9992270531401 617,278.30434782608694 618.8,276.59053140096614 620.6,274.85777777777776 622.4,273.1060869565217 624.2,271.33545893719804 626,269.54589371980677 627.8,267.73739130434785 629.6,265.9099516908213 631.4,264.0635748792271 633.2,262.1982608695652 635,260.31400966183577 636.8,258.4108212560386 638.6,256.4886956521739 640.4,254.54763285024154 642.2,252.58763285024153 644,250.60869565217394 645.8,248.61082125603866 647.6,246.59400966183574 649.4,244.55826086956523 651.2,242.50357487922707 653,240.42995169082127 654.8,238.33739130434782 656.6,236.22589371980672 658.4,234.0954589371981 660.2,231.94608695652173 662,229.77777777777777 663.8,227.5905314009662 665.6,225.38434782608695 667.4,223.15922705314009 669.2,220.91516908212557 671,218.65217391304344 672.8,216.37024154589372 674.6,214.0693719806763 676.4,211.74956521739134 678.2,209.41082125603864 680,207.05314009661834 681.8,204.67652173913044 683.6,202.28096618357486 685.4,199.86647342995164 687.2,197.43304347826088 689,194.9806763285024 690.8,192.50937198067635 692.6,190.0191304347826 694.4,187.50995169082123 696.2,184.98183574879226 698,182.43478260869563 699.8,179.8687922705314 701.6,177.2838647342995 703.4,174.67999999999998 705.2,172.05719806763284 707,169.41545893719805 708.8,166.75478260869565 710.6,164.0751690821256 712.4000000000001,161.3766183574879 714.2,158.6591304347826 716,155.92270531400965 717.8,153.16734299516904 719.6,150.39304347826086 721.4000000000001,147.599806763285 723.2,144.78763285024155 725,141.9565217391304" fill="none" stroke="#243746" stroke-width="3"/><text x="455" y="83" font-size="21" fill="#243746" text-anchor="start">8 piezas uniformes</text><text x="590" y="413" font-size="22" fill="#243746" text-anchor="middle">U − L = 1/8</text><text x="32" y="463" font-size="18" fill="#243746" text-anchor="start">Para f(x) = x², la diferencia de estas dos sumas es 1/n.</text></g></svg>