<svg xmlns="http://www.w3.org/2000/svg" width="720" height="700" viewBox="0 0 720 700" role="img" aria-labelledby="title desc">
<title id="title">F03-03. Arcos para bisecar AC.</title>
<desc id="desc">Con la misma abertura del compás y centros A y C, los arcos se cortan en dos puntos equidistantes de A y C.</desc>
<rect width="720" height="700" fill="#ffffff"/>
<style>
  .old { stroke:#4b5563; stroke-width:3; fill:none; stroke-linecap:round; stroke-linejoin:round; }
  .new { stroke:#2563eb; stroke-width:4; fill:none; stroke-linecap:round; stroke-linejoin:round; }
  .aux { stroke:#2563eb; stroke-width:2.8; fill:none; stroke-dasharray:10 9; opacity:.86; }
  .aux-old { stroke:#94a3b8; stroke-width:2.4; fill:none; stroke-dasharray:9 9; opacity:.58; }
  .point { fill:#111827; }
  .point-new { fill:#2563eb; }
  .label { font-family:"STIX Two Math","Times New Roman",serif; font-style:italic; font-size:34px; fill:#111827; }
  .label-new { font-family:"STIX Two Math","Times New Roman",serif; font-style:italic; font-size:34px; fill:#2563eb; }
  .tick { stroke:#2563eb; stroke-width:3; stroke-linecap:round; }
  .tick-old { stroke:#64748b; stroke-width:2.7; stroke-linecap:round; }
</style>
<line x1="180.00" y1="420.00" x2="540.00" y2="420.00" class="old"/>
<line x1="180.00" y1="420.00" x2="180.00" y2="60.00" class="old"/>
<line x1="180.00" y1="60.00" x2="540.00" y2="60.00" class="old"/>
<line x1="540.00" y1="60.00" x2="540.00" y2="420.00" class="old"/>
<polyline points="331.08,240.00 327.12,243.25 323.08,246.42 318.98,249.50 314.81,252.48 310.58,255.38 306.29,258.18 301.93,260.89 297.52,263.50 293.05,266.02 288.53,268.44 283.96,270.76 279.33,272.97 274.66,275.09 269.95,277.10 265.19,279.02 260.39,280.82 255.55,282.52 250.68,284.12 245.77,285.61 240.83,286.99 235.87,288.26 230.87,289.43 225.85,290.48 220.82,291.43 215.76,292.26 210.68,292.99 205.59,293.60 200.49,294.11 195.37,294.50 190.25,294.78 185.13,294.94 180.00,295.00 174.87,294.94 169.75,294.78 164.63,294.50 159.51,294.11 154.41,293.60 149.32,292.99 144.24,292.26 139.18,291.43 134.15,290.48 129.13,289.43 124.13,288.26 119.17,286.99 114.23,285.61 109.32,284.12 104.45,282.52 99.61,280.82 94.81,279.02 90.05,277.10 85.34,275.09 80.67,272.97 76.04,270.76 71.47,268.44 66.95,266.02 62.48,263.50 58.07,260.89 53.71,258.18 49.42,255.38 45.19,252.48 41.02,249.50 36.92,246.42 32.88,243.25 28.92,240.00" class="aux"/>
<polyline points="28.92,240.00 32.88,236.75 36.92,233.58 41.02,230.50 45.19,227.52 49.42,224.62 53.71,221.82 58.07,219.11 62.48,216.50 66.95,213.98 71.47,211.56 76.04,209.24 80.67,207.03 85.34,204.91 90.05,202.90 94.81,200.98 99.61,199.18 104.45,197.48 109.32,195.88 114.23,194.39 119.17,193.01 124.13,191.74 129.13,190.57 134.15,189.52 139.18,188.57 144.24,187.74 149.32,187.01 154.41,186.40 159.51,185.89 164.63,185.50 169.75,185.22 174.87,185.06 180.00,185.00 185.13,185.06 190.25,185.22 195.37,185.50 200.49,185.89 205.59,186.40 210.68,187.01 215.76,187.74 220.82,188.57 225.85,189.52 230.87,190.57 235.87,191.74 240.83,193.01 245.77,194.39 250.68,195.88 255.55,197.48 260.39,199.18 265.19,200.98 269.95,202.90 274.66,204.91 279.33,207.03 283.96,209.24 288.53,211.56 293.05,213.98 297.52,216.50 301.93,219.11 306.29,221.82 310.58,224.62 314.81,227.52 318.98,230.50 323.08,233.58 327.12,236.75 331.08,240.00" class="aux"/>
<circle cx="28.92" cy="240.00" r="4.7" class="point-new"/>
<circle cx="331.08" cy="240.00" r="4.7" class="point-new"/>
<circle cx="180.00" cy="420.00" r="5.5" class="point"/><text x="144.00" y="460.00" class="label">A</text>
<circle cx="540.00" cy="420.00" r="5.5" class="point"/><text x="554.00" y="460.00" class="label">B</text>
<circle cx="180.00" cy="60.00" r="5.5" class="point"/><text x="144.00" y="50.00" class="label">C</text>
<circle cx="540.00" cy="60.00" r="5.5" class="point"/><text x="554.00" y="50.00" class="label">D</text>
</svg>